<?xml version="1.0" encoding="utf-8"?>
<!-- Generator: Adobe Illustrator 26.0.3, SVG Export Plug-In . SVG Version: 6.00 Build 0)  -->
<svg version="1.1" id="Слой_1" xmlns="http://www.w3.org/2000/svg" xmlns:xlink="http://www.w3.org/1999/xlink" x="0px" y="0px"
	 viewBox="0 0 229.83 47.12" width="240" height="55" style="enable-background:new 0 0 229.83 47.12;" xml:space="preserve">
<style type="text/css">
	.st0{fill:#8613E0;}
	.st1{fill:#FF7A00;}
</style>
<g>
	<path class="st0" d="M6.83,1.62c2.82,0,5.04,2.22,5.04,5.1c0,2.82-2.22,5.04-5.04,5.04S1.79,9.54,1.79,6.72
		C1.79,3.84,4.01,1.62,6.83,1.62z M2.63,44.58V14.64h8.46v29.94H2.63z"/>
	<path class="st0" d="M28.25,44.58h-8.46V14.64h8.46v3.6c2.7-2.94,6-4.38,10.02-4.38c6.96,0,10.92,4.68,10.92,12.36v18.36h-8.46
		V27.96c0-4.62-2.58-6.36-5.7-6.36c-2.64,0-5.34,1.68-6.78,3.9V44.58z"/>
	<path class="st0" d="M82.97,44.58h-8.46V21.72h-5.34v-7.08h5.34v-2.82c0-5.94,3.48-9.96,10.14-9.96c2.94,0,5.46,0.42,7.62,1.26
		v6.84c-1.74-0.66-3.42-1.02-5.16-1.02c-2.76,0-4.14,1.32-4.14,4.02v1.68h9.3v7.08h-9.3V44.58z"/>
	<path class="st0" d="M99.71,18.42c3.12-3.06,7.08-4.56,11.94-4.56c4.86,0,8.82,1.5,11.94,4.56c3.12,3.06,4.68,6.78,4.68,11.16
		c0,4.5-1.56,8.22-4.68,11.28c-3.12,3-7.08,4.5-11.94,4.5c-4.86,0-8.82-1.5-11.94-4.5c-3.12-3.06-4.68-6.78-4.68-11.28
		C95.03,25.14,96.59,21.42,99.71,18.42z M111.65,37.98c2.4,0,4.38-0.78,5.94-2.4c1.56-1.62,2.34-3.6,2.34-6
		c0-2.4-0.78-4.38-2.34-5.94c-1.56-1.62-3.54-2.4-5.94-2.4c-2.4,0-4.38,0.78-5.94,2.4c-1.56,1.56-2.34,3.54-2.34,5.94
		c0,2.4,0.78,4.38,2.34,6C107.27,37.2,109.25,37.98,111.65,37.98z"/>
	<path class="st0" d="M137.33,41.04c-3.18-2.94-4.8-6.78-4.8-11.52s1.62-8.52,4.8-11.34c3.24-2.88,7.08-4.32,11.58-4.32
		c3.3,0,6.24,0.66,8.88,1.98v7.2c-2.58-1.2-5.16-1.8-7.62-1.8c-2.64,0-4.86,0.78-6.66,2.34c-1.74,1.5-2.64,3.54-2.64,6
		s0.9,4.5,2.7,6.06c1.8,1.56,4.02,2.34,6.6,2.34c3.06,0,5.76-0.66,8.1-2.04v7.2c-2.82,1.5-5.94,2.22-9.48,2.22
		C144.35,45.36,140.51,43.92,137.33,41.04z"/>
	<path class="st0" d="M185.87,14.64h8.46v29.94h-8.46v-3.6c-2.7,2.94-6,4.38-10.02,4.38c-6.96,0-10.92-4.68-10.92-12.36V14.64h8.46
		v16.62c0,4.62,2.58,6.36,5.7,6.36c2.64,0,5.34-1.68,6.78-3.9V14.64z"/>
	<path class="st0" d="M201.05,42.54v-7.5c2.64,1.74,7.38,3.42,12.24,3.42c3.42,0,5.16-0.84,5.16-2.52c0-0.78-0.36-1.38-1.5-1.86
		c-0.54-0.24-1.08-0.42-1.56-0.54L213.16,33c-1.02-0.3-1.86-0.48-2.4-0.66c-6.9-1.86-9.72-4.02-9.72-9.3c0-5.7,4.98-9.18,13.2-9.18
		c4.5,0,8.28,0.9,11.22,2.76v7.2c-3.6-2.1-7.2-3.12-10.86-3.12c-3.18,0-4.8,0.78-4.8,2.4c0,1.02,0.78,1.44,1.68,1.98
		c0.66,0.24,1.86,0.54,2.58,0.78l3.18,0.66c6.48,1.5,9.78,4.26,9.78,9.48c0,2.82-1.2,5.04-3.66,6.78c-2.46,1.74-5.7,2.58-9.72,2.58
		C208.31,45.36,204.11,44.4,201.05,42.54z"/>
</g>
<circle class="st1" cx="61.83" cy="38.92" r="6.44"/>
</svg>
